<svg width="12" height="12" viewBox="0 0 12 12" fill="none" xmlns="http://www.w3.org/2000/svg">
<path d="M6 0C2.688 0 0 2.688 0 6C0 9.312 2.688 12 6 12C9.312 12 12 9.312 12 6C12 2.688 9.312 0 6 0ZM8.118 6.018C8.028 6.108 7.914 6.15 7.8 6.15C7.686 6.15 7.572 6.108 7.482 6.018L6.45 4.986V8.1C6.45 8.346 6.246 8.55 6 8.55C5.754 8.55 5.55 8.346 5.55 8.1V4.986L4.518 6.018C4.344 6.192 4.056 6.192 3.882 6.018C3.708 5.844 3.708 5.556 3.882 5.382L5.682 3.582C5.856 3.408 6.144 3.408 6.318 3.582L8.118 5.382C8.292 5.556 8.292 5.844 8.118 6.018Z" fill="#1A5094"/>
</svg>
