<svg width="12" height="12" viewBox="0 0 12 12" fill="none" xmlns="http://www.w3.org/2000/svg">
<path d="M6 0C2.688 0 0 2.688 0 6C0 9.312 2.688 12 6 12C9.312 12 12 9.312 12 6C12 2.688 9.312 0 6 0ZM8.118 6.618L6.318 8.418C6.228 8.508 6.114 8.55 6 8.55C5.886 8.55 5.772 8.508 5.682 8.418L3.882 6.618C3.708 6.444 3.708 6.156 3.882 5.982C4.056 5.808 4.344 5.808 4.518 5.982L5.55 7.014V3.9C5.55 3.654 5.754 3.45 6 3.45C6.246 3.45 6.45 3.654 6.45 3.9V7.014L7.482 5.982C7.656 5.808 7.944 5.808 8.118 5.982C8.292 6.156 8.292 6.444 8.118 6.618Z" fill="#424242"/>
</svg>
