<svg width="12" height="11" viewBox="0 0 12 11" fill="none" xmlns="http://www.w3.org/2000/svg">
<path d="M12 2.49C12 2.886 11.676 3.21 11.28 3.21H0.72C0.324 3.21 0 2.886 0 2.49V2.484C0 1.11 1.11 0 2.484 0H9.51C10.884 0 12 1.116 12 2.49Z" fill="#C7C7C7" fill-opacity="0.47"/>
<path d="M0 4.83093V7.83693C0 9.21093 1.11 10.3209 2.484 10.3209H9.51C10.884 10.3209 12 9.20493 12 7.83093V4.83093C12 4.43493 11.676 4.11093 11.28 4.11093H0.72C0.324 4.11093 0 4.43493 0 4.83093ZM3.6 8.31093H2.4C2.154 8.31093 1.95 8.10693 1.95 7.86093C1.95 7.61493 2.154 7.41093 2.4 7.41093H3.6C3.846 7.41093 4.05 7.61493 4.05 7.86093C4.05 8.10693 3.846 8.31093 3.6 8.31093ZM7.5 8.31093H5.1C4.854 8.31093 4.65 8.10693 4.65 7.86093C4.65 7.61493 4.854 7.41093 5.1 7.41093H7.5C7.746 7.41093 7.95 7.61493 7.95 7.86093C7.95 8.10693 7.746 8.31093 7.5 8.31093Z" fill="#C7C7C7" fill-opacity="0.47"/>
</svg>
