<svg width="13" height="13" viewBox="0 0 13 13" fill="none" xmlns="http://www.w3.org/2000/svg">
<path d="M9.2281 0H3.77838C1.4112 0 0 1.4105 0 3.7765V9.217C0 11.5895 1.4112 13 3.77838 13H9.22159C11.5888 13 13 11.5895 13 9.2235V3.7765C13.0065 1.4105 11.5953 0 9.2281 0ZM8.68833 7.995C8.87692 8.1835 8.87692 8.4955 8.68833 8.684C8.59078 8.7815 8.46722 8.827 8.34366 8.827C8.2201 8.827 8.09653 8.7815 7.99899 8.684L6.50324 7.189L5.00749 8.684C4.90995 8.7815 4.78639 8.827 4.66282 8.827C4.53926 8.827 4.4157 8.7815 4.31815 8.684C4.12956 8.4955 4.12956 8.1835 4.31815 7.995L5.8139 6.5L4.31815 5.005C4.12956 4.8165 4.12956 4.5045 4.31815 4.316C4.50675 4.1275 4.8189 4.1275 5.00749 4.316L6.50324 5.811L7.99899 4.316C8.18758 4.1275 8.49973 4.1275 8.68833 4.316C8.87692 4.5045 8.87692 4.8165 8.68833 5.005L7.19258 6.5L8.68833 7.995Z" fill="#292D32"/>
</svg>
