<svg width="15" height="15" viewBox="0 0 15 15" fill="none" xmlns="http://www.w3.org/2000/svg">
<path d="M9.28608 1.42863V4.28588H8.15821V1.42863C8.15821 1.22561 7.97776 1.12786 7.85745 1.12786C7.81985 1.12786 7.78226 1.13538 7.74466 1.15042L1.78202 3.39863C1.38351 3.54901 1.12786 3.92497 1.12786 4.35355V4.85733C0.443626 5.36863 0 6.18823 0 7.11308V4.35355C0 3.45878 0.548894 2.66176 1.38351 2.34596L7.35367 0.090229C7.51909 0.0300763 7.69203 0 7.85745 0C8.60936 0 9.28608 0.609046 9.28608 1.42863Z" fill="#292D32"/>
<path d="M14.2868 9.36067V10.1126C14.2868 10.3156 14.1289 10.481 13.9184 10.4885H12.8206C12.4221 10.4885 12.0612 10.1953 12.0311 9.80429C12.0085 9.5712 12.0988 9.35315 12.2491 9.20276C12.3845 9.0599 12.5725 8.98471 12.7755 8.98471H13.9109C14.1289 8.99223 14.2868 9.15765 14.2868 9.36067Z" fill="#292D32"/>
<path d="M12.7674 8.19524H13.5344C13.9479 8.19524 14.2863 7.85688 14.2863 7.44333V7.11249C14.2863 5.55604 13.0155 4.28531 11.4591 4.28531H2.82718C2.18806 4.28531 1.60157 4.49584 1.12786 4.85676C0.443626 5.36806 0 6.18764 0 7.11249V12.1728C0 13.7293 1.27073 15 2.82718 15H11.4591C13.0155 15 14.2863 13.7293 14.2863 12.1728V12.03C14.2863 11.6164 13.9479 11.2781 13.5344 11.2781H12.8802C12.1584 11.2781 11.4666 10.8344 11.2786 10.1352C11.1207 9.56371 11.3087 9.01482 11.6847 8.64638C11.9629 8.36066 12.3463 8.19524 12.7674 8.19524ZM8.64695 8.04485H3.38359C3.07531 8.04485 2.81966 7.7892 2.81966 7.48092C2.81966 7.17264 3.07531 6.91699 3.38359 6.91699H8.64695C8.95524 6.91699 9.21089 7.17264 9.21089 7.48092C9.21089 7.7892 8.95524 8.04485 8.64695 8.04485Z" fill="#292D32"/>
</svg>
